<svg xmlns="http://www.w3.org/2000/svg" viewBox="0 0 110 110" width="256" height="256"><defs><linearGradient id="a" x1="55" x2="55" y1="10.81" y2="99.19" gradientUnits="userSpaceOnUse"><stop offset="0" stop-color="#dd1200" class="stopColordd1200 svgShape"></stop><stop offset="1" stop-color="#fba300" class="stopColorfba300 svgShape"></stop></linearGradient></defs><path fill="url(#a)" d="M69.28,32.73A10.35,10.35,0,1,1,79.63,43.08,10.36,10.36,0,0,1,69.28,32.73ZM29.59,54.37a1,1,0,0,0-1.8-.57c-6.42,8.71-8.65,16.25-8.65,22.52,0,11.27,7.21,18.47,10.38,21.08a2.41,2.41,0,0,0,3.89-1.32c1.71-7.15,4-10.79,5.59-12.58a.42.42,0,0,1,.72.35c-.52,2.76-.66,6.73,1.61,10,1.86,2.67,5,4.39,9.32,5.13a15.81,15.81,0,0,0,2.47.22,7.53,7.53,0,0,0,5.81-2.27c3.48-3.77,2.53-11.18,1.12-16.73a.4.4,0,0,1,.17-.45.41.41,0,0,1,.49,0C66.51,84,68.38,91.15,69,95.06a2.43,2.43,0,0,0,4.3,1.14c4.2-5.29,12.41-20-2.17-41.86-17.72-26.6-10-41.92-9.91-42.07a1,1,0,0,0-1.33-1.36C29.14,26.38,36.06,61.24,38.46,70.28,30,65.54,29.6,54.48,29.59,54.37ZM88,67.05a7.51,7.51,0,1,0,7.51-7.51A7.52,7.52,0,0,0,88,67.05ZM13.24,51.77A6.24,6.24,0,1,0,7,45.53,6.26,6.26,0,0,0,13.24,51.77Z"></path></svg>