<svg xmlns="http://www.w3.org/2000/svg" viewBox="0 0 24 24" width="256" height="256"><path d="M5.072 0A5.061 5.061 0 0 0 0 5.072v13.856A5.061 5.061 0 0 0 5.072 24h13.856A5.061 5.061 0 0 0 24 18.928V5.072A5.061 5.061 0 0 0 18.928 0H5.072zM4 6h1v3.998h1V6h1v3.998h1V6h1v4.998H7V18H6v-7.002H4V6zm11 1c2.756 0 5 2.245 5 5s-2.244 5-5 5-5-2.245-5-5 2.244-5 5-5zm0 1c-2.215 0-4 1.785-4 4s1.785 4 4 4 4-1.785 4-4-1.785-4-4-4zm0 1c1.65 0 3 1.35 3 3 0 1.651-1.35 3-3 3s-3-1.349-3-3c0-1.65 1.35-3 3-3zm0 1c-1.11 0-2 .89-2 2 0 1.11.89 2 2 2 1.11 0 2-.89 2-2 0-1.11-.89-2-2-2z" fill="#000000" class="color000 svgShape"></path></svg>