<svg id="SvgjsSvg1016" width="256" height="256" xmlns="http://www.w3.org/2000/svg" version="1.1" xmlns:xlink="http://www.w3.org/1999/xlink" xmlns:svgjs="http://svgjs.com/svgjs"><defs id="SvgjsDefs1017"></defs><g id="SvgjsG1018"><svg xmlns="http://www.w3.org/2000/svg" enable-background="new 0 0 24 24" viewBox="0 0 24 24" width="256" height="256"><path fill="#f1b01b" d="M17,12c0,2.8-2.2,5-5,5c-1.4,0-2.6-0.6-3.5-1.5C7.6,14.6,7,13.4,7,12c0-2.8,2.2-5,5-5c1.4,0,2.6,0.6,3.5,1.5
		C16.4,9.4,17,10.6,17,12z" class="colorf1b01b svgShape"></path><path fill="#ea8f04" d="M12 6c-.6 0-1-.4-1-1V3c0-.6.4-1 1-1s1 .4 1 1v2C13 5.6 12.6 6 12 6zM19.1 6.3l-1.4 1.4C17.5 8 17.2 8 17 8S16.4 8 16.2 7.8c-.4-.4-.4-1 0-1.4l1.4-1.4c.4-.4 1-.4 1.4 0S19.5 6 19.1 6.3zM22 12c0 .5-.5 1-1 1h-2c-.5 0-1-.5-1-1s.5-1 1-1h2C21.5 11 22 11.5 22 12zM19.1 19.1c-.2.2-.5.3-.7.3-.3 0-.5-.1-.7-.3l-1.4-1.4c-.4-.4-.4-1 0-1.4s1-.4 1.4 0l1.4 1.4C19.5 18 19.5 18.7 19.1 19.1zM13 19v2c0 .5-.5 1-1 1s-1-.5-1-1v-2c0-.5.5-1 1-1S13 18.5 13 19zM7.8 17.7l-1.4 1.4c-.2.2-.5.3-.7.3-.3 0-.5-.1-.7-.3-.4-.4-.4-1 0-1.4l1.4-1.4c.4-.4 1-.4 1.4 0S8.2 17.3 7.8 17.7zM5 13H3c-.6 0-1-.4-1-1s.4-1 1-1h2c.6 0 1 .4 1 1S5.6 13 5 13zM7.1 8.1C6.8 8.1 6.5 8 6.3 7.8L4.9 6.3c-.4-.4-.4-1 0-1.4s1-.4 1.4 0l1.4 1.4c.4.4.4 1 0 1.4C7.6 8 7.3 8.1 7.1 8.1z" class="colorea8f04 svgShape"></path><path d="M7.8 16.2c.4.4.4 1 0 1.4l-1.4 1.4c-.2.2-.5.3-.7.3-.3 0-.5-.1-.7-.3L7.8 16.2zM13 19v2c0 .5-.5 1-1 1s-1-.5-1-1v-2c0-.5.5-1 1-1S13 18.5 13 19zM17 12c0 2.8-2.2 5-5 5-1.4 0-2.6-.6-3.5-1.5l7.1-7.1C16.4 9.4 17 10.6 17 12zM19.1 17.7c.4.4.4 1 0 1.4-.2.2-.5.3-.7.3-.3 0-.5-.1-.7-.3l-1.4-1.4c-.4-.4-.4-1 0-1.4s1-.4 1.4 0L19.1 17.7zM17 8c-.3 0-.5-.1-.7-.3l2.8-2.8c.4.4.4 1 0 1.4l-1.4 1.4C17.5 8 17.2 8 17 8zM22 12c0 .5-.5 1-1 1h-2c-.5 0-1-.5-1-1s.5-1 1-1h2C21.5 11 22 11.5 22 12z" opacity=".1" fill="#000000" class="color000 svgShape"></path></svg></g></svg>