<svg id="SvgjsSvg1011" width="256" height="256" xmlns="http://www.w3.org/2000/svg" version="1.1" xmlns:xlink="http://www.w3.org/1999/xlink" xmlns:svgjs="http://svgjs.com/svgjs"><defs id="SvgjsDefs1012"></defs><g id="SvgjsG1013"><svg xmlns="http://www.w3.org/2000/svg" fill="none" viewBox="0 0 24 24" width="256" height="256"><path fill="#ffc44d" fill-rule="evenodd" d="M12.5 1.25C6.56294 1.25 1.75 6.06294 1.75 12C1.75 17.9371 6.56294 22.75 12.5 22.75C16.0175 22.75 19.1404 21.0598 21.1004 18.4504C21.2711 18.2232 21.2987 17.9191 21.1717 17.6648C21.0447 17.4106 20.7849 17.25 20.5007 17.25H20.5007H20.5007H20.5007H20.5007H20.5007H20.5006H20.5006H20.5006H20.5006H20.5006H20.5006H20.5005H20.5005H20.5005H20.5005H20.5005H20.5005H20.5005H20.5004H20.5004H20.5004H20.5004H20.5004H20.5004H20.5003H20.5003H20.5003H20.5003H20.5003H20.5003H20.5003H20.5002H20.5002H20.5002H20.5002H20.5002H20.5002H20.5001H20.5001H20.5001H20.5001H20.5001H20.5001H20.5001H20.5H20.5H20.5C16.2198 17.25 12.75 13.7802 12.75 9.5C12.75 6.85941 14.0699 4.52696 16.0894 3.12654C16.3228 2.96469 16.4447 2.68491 16.4044 2.40377C16.3641 2.12264 16.1685 1.88839 15.899 1.79865C14.8297 1.44254 13.6866 1.25 12.5 1.25Z" clip-rule="evenodd" class="colorFFC44D svgShape"></path></svg></g></svg>