<svg id="SvgjsSvg1011" width="256" height="256" xmlns="http://www.w3.org/2000/svg" version="1.1" xmlns:xlink="http://www.w3.org/1999/xlink" xmlns:svgjs="http://svgjs.com/svgjs"><defs id="SvgjsDefs1012"></defs><g id="SvgjsG1013"><svg xmlns="http://www.w3.org/2000/svg" viewBox="0 0 32 32" width="256" height="256"><path fill="#3c3b42" d="m13.987 15.903 1.414 1.414-2.5 2.501-1.415-1.414z" class="color3c3b42 svgShape"></path><path fill="#2b2a2f" d="M13.987 17.317a8.625 8.625 0 0 1-.662-.752l-.532.532c.067.072.124.15.194.22.24.24.493.457.752.662L12.4 19.318l.5.5 1.839-1.839a8.794 8.794 0 0 1-.752-.662z" class="color2b2a2f svgShape"></path><path fill="#8b6946" d="M4.088 27.216a2 2 0 0 1 0-2.828l6.364-6.364a.999.999 0 0 1 1.414 0l1.414 1.414a.999.999 0 0 1 0 1.414l-6.364 6.364a2 2 0 0 1-2.828 0z" class="color8b6946 svgShape"></path><path fill="#75563a" d="m13.28 19.438-1-1a1 1 0 0 1 0 1.414l-6.364 6.364a1.998 1.998 0 0 1-2.233.405c.097.215.228.419.405.595a2 2 0 0 0 2.828 0l6.364-6.364a.999.999 0 0 0 0-1.414z" class="color75563a svgShape"></path><circle cx="19.998" cy="11.306" r="8.5" fill="#3c3b42" transform="rotate(-45.001 19.998 11.307)" class="color3c3b42 svgShape"></circle><path fill="#2b2a2f" d="M26.008 5.296a8.458 8.458 0 0 0-3.231-2.014c.433.295.847.63 1.231 1.014a8.501 8.501 0 0 1 0 12.021c-2.378 2.378-5.812 3.043-8.79 2.014a8.5 8.5 0 0 0 10.79-13.035z" class="color2b2a2f svgShape"></path><circle cx="19.998" cy="11.306" r="7" fill="#d5e5f1" transform="rotate(-45.001 19.998 11.307)" class="colord5e5f1 svgShape"></circle><path fill="#b0c4da" d="M24.948 6.357a7.054 7.054 0 0 0-1.101-.899 7.002 7.002 0 0 1-9.697 9.697 6.999 6.999 0 0 0 10.798 1.101 7 7 0 0 0 0-9.899z" class="colorb0c4da svgShape"></path><path fill="none" stroke="#eff2fa" stroke-linecap="round" stroke-linejoin="round" stroke-miterlimit="10" d="M16.109 7.417a5.5 5.5 0 0 1 5.313-1.424m1.731.808a5.651 5.651 0 0 1 .735.616" class="colorStrokeeff2fa svgStroke"></path></svg></g></svg>